<svg width="99" height="136" viewBox="0 0 99 136" fill="none" xmlns="http://www.w3.org/2000/svg">
<path d="M12.3509 3.90057V115.457C12.3509 119.87 15.9145 123.458 20.324 123.458H95.0252C96.3357 123.458 97.4091 124.527 97.4091 125.858V132.099C97.4091 133.431 96.3357 134.5 95.0252 134.5H12.9462C6.63071 134.5 1.5 129.356 1.5 122.998V3.90057C1.5 2.56869 2.57336 1.5 3.88386 1.5H9.96703C11.2775 1.5 12.3509 2.5687 12.3509 3.90057ZM37.8586 37.7055V3.90057C37.8586 2.5687 38.932 1.5 40.2425 1.5H63.9075C73.798 1.5 81.8268 9.55408 81.8268 19.5029V37.7055C81.8268 39.0374 80.7535 40.1061 79.443 40.1061H40.2425C38.9319 40.1061 37.8586 39.0374 37.8586 37.7055ZM37.8586 98.2945V64.4895C37.8586 63.1576 38.932 62.0889 40.2425 62.0889H63.9075C73.798 62.0889 81.8268 70.143 81.8268 80.0918V98.2945C81.8268 99.6263 80.7535 100.695 79.443 100.695H40.2425C38.9319 100.695 37.8586 99.6263 37.8586 98.2945Z" stroke="#212738" stroke-width="3"/>
<path d="M20.324 121.958C16.749 121.958 13.8509 119.047 13.8509 115.457V3.90057C13.8509 1.74635 12.112 0 9.96703 0H3.88386C1.73886 0 0 1.74635 0 3.90057V122.998C0 130.179 5.79622 136 12.9462 136H95.0252C97.1702 136 98.9091 134.254 98.9091 132.099V125.859C98.9091 123.704 97.1702 121.958 95.0252 121.958H20.324Z" fill="#212738"/>
</svg>
